***************************************************************
 
http://www.torrentforce.org/imghost/3/greyshadow_tfbanner.png

***************************************************************
 
http://pix2links.com/images/87873087553318545434.jpg

***************************************************************

FILM TITLE: Swordsmen (2011) Wu xia (original title)

***************************************************************

Genre: Action | Drama   

Release: 4 July 2011 (China) 

Director: Peter Chan

Writer: Oi Wah Lam

Stars: Kara Hui, Wu Jiang and Takeshi Kaneshiro

Country: Hong Kong | China

Language: Mandarin

Plot:
A sinful martial arts expert wants to start a new tranquil life, 
only to be hunted by a determined detective and his former master.

IMDB Rating: 7.2/10 (606 votes) 
 
http://www.imdb.com/title/tt1718199/ 

****************************************************************
 
http://pix2links.com/images/64591861406938654115.png 
http://pix2links.com/images/05967990471076740048.png 
http://pix2links.com/images/03958559970567044439.png 
http://pix2links.com/images/85338835162697954615.png

****************************************************************

[IMG]http://www.torrentforce.org/imghost/2/greyshadow_mediainfo.png[/IMG]
General
Complete name                    : Swordsmen 2011 720p BDRip XviD ac3 (avi) [TFRG].avi
Format                           : AVI
Format/Info                      : Audio Video Interleave
Format profile                   : OpenDML
File size                        : 2.67 GiB
Duration                         : 1h 54mn
Overall bit rate                 : 3328 Kbps
Writing library                  : VirtualDub build 32842/release

Video
ID                               : 0
Format                           : MPEG-4 Visual
Format profile                   : Simple@L5
Format settings, BVOP            : No
Format settings, QPel            : No
Format settings, GMC             : No warppoints
Format settings, Matrix          : Default (H.263)
Codec ID                         : XVID
Codec ID/Hint                    : XviD
Duration                         : 1h 54mn
Bit rate                         : 2997 Kbps
Width                            : 1280 pixels
Height                           : 544 pixels
Display aspect ratio             : 2.35:1
Frame rate                       : 24.000 fps
Color space                      : YUV
Chroma subsampling               : 4:2:0
Bit depth                        : 8 bits
Scan type                        : Progressive
Compression mode                 : Lossy
Bits/(Pixel*Frame)               : 0.179
Stream size                      : 2.41 GiB (90%)
Writing library                  : XviD 64

Audio
ID                               : 1
Format                           : AC-3
Format/Info                      : Audio Coding 3
Mode extension                   : CM (complete main)
Codec ID                         : 2000
Duration                         : 1h 54mn
Bit rate mode                    : Constant
Bit rate                         : 320 Kbps
Channel(s)                       : 6 channels
Channel positions                : Front: L C R, Side: L R, LFE
Sampling rate                    : 48.0 KHz
Bit depth                        : 16 bits
Compression mode                 : Lossy
Stream size                      : 263 MiB (10%)
Alignment                        : Aligned on interleaves
Interleave, duration             : 42 ms (1.00 video frame)
Interleave, preload duration     : 512 ms

Subtitles: English (hard coded)

****************************************************************

Video Source:  Swordsmen 2011 Blu-Ray 1080p AVC DTS-HD MA-CHDBits (35.58GB)

Thanks: (chdbits.org)

****************************************************************

I provide a small sample, so please download this to check your 
compatibility first if you are unsure.

****************************************************************

A big thanks to all the sites out there who care and share and
who make it possible for you to download this torrent for free.

Greetz to Westy, Ripwyn, mustang, noir, Blackjesus, MXMG, The Stig 
and all the other outstanding members of our community of file 
sharers and a special mention to our friends at 1337x.

****************************************************************